<svg width="337" height="293" viewBox="0 0 337 293" fill="none" xmlns="http://www.w3.org/2000/svg">
<g clip-path="url(#clip0_8_257)">
<path d="M174.166 10.5968H0V130.361H174.166V10.5968Z" fill="#CDDDF9"/>
<path d="M101.173 54.1806H0V59.6255H101.173V54.1806Z" fill="#AEC5E5"/>
<path d="M174.166 80.5018H107.889V85.9467H174.166V80.5018Z" fill="#AEC5E5"/>
<path d="M107.889 10.5968H101.173V130.361H107.889V10.5968Z" fill="#AEC5E5"/>
<path d="M55.6294 1.52588e-05C49.5284 1.52588e-05 43.6773 2.42326 39.3632 6.73669C35.0491 11.0501 32.6255 16.9004 32.6255 23.0005C32.6255 35.6972 55.6294 57.5501 55.6294 57.5501C55.6294 57.5501 78.6089 35.6972 78.6089 23.0005C78.6121 19.9812 78.0201 16.9908 76.8668 14.2004C75.7134 11.41 74.0212 8.8743 71.887 6.73818C69.7528 4.60207 67.2185 2.90746 64.4289 1.75127C61.6393 0.595092 58.6492 1.35539e-05 55.6294 1.52588e-05ZM55.6294 25.5643C54.1805 25.5643 52.764 25.1346 51.5592 24.3298C50.3545 23.5249 49.4155 22.3809 48.861 21.0424C48.3065 19.7039 48.1614 18.2311 48.4441 16.8102C48.7268 15.3893 49.4246 14.0841 50.4491 13.0597C51.4737 12.0353 52.7791 11.3376 54.2002 11.055C55.6213 10.7724 57.0943 10.9174 58.433 11.4718C59.7716 12.0262 60.9159 12.9651 61.7209 14.1697C62.5259 15.3743 62.9555 16.7905 62.9555 18.2393C62.9555 20.182 62.1837 22.0451 60.8098 23.4188C59.4359 24.7925 57.5724 25.5643 55.6294 25.5643Z" fill="#037EE6"/>
<path d="M185.277 247.292H72.6259V178.315L111.137 109.338H185.277V247.292Z" fill="#7AA5EA"/>
<path d="M449.602 62.2869H185.277V247.316H449.602V62.2869Z" fill="#F5F5F5"/>
<path d="M72.6259 178.315H139.684V116.712H107.01L72.6259 178.315Z" fill="white"/>
<path d="M185.277 229.273H68.4989V251.101H185.277V229.273Z" fill="#037EE6"/>
<path d="M86.1059 209.739H78.1449V225.854H86.1059V209.739Z" fill="#037EE6"/>
<path d="M78.1449 209.739H70.1839V225.854H78.1449V209.739Z" fill="white"/>
<path d="M170.454 116.712H145.765V178.315H170.454V116.712Z" fill="#037EE6"/>
<path d="M337.024 229.273H185.277V251.101H337.024V229.273Z" fill="#7AA5EA"/>
<path d="M200.173 62.2869H185.277V229.273H200.173V62.2869Z" fill="#CDDDF9"/>
<path d="M171.209 262.138C174.367 242.773 161.226 224.515 141.858 221.358C122.491 218.201 104.23 231.34 101.072 250.704C97.9146 270.069 111.056 288.327 130.423 291.484C149.791 294.642 168.052 281.503 171.209 262.138Z" fill="#037EE6"/>
<path d="M155.291 262.995C158.897 252.442 153.263 240.964 142.708 237.359C132.153 233.755 120.674 239.387 117.068 249.941C113.463 260.494 119.097 271.971 129.651 275.576C140.206 279.181 151.686 273.549 155.291 262.995Z" fill="#B4CCEF"/>
<path d="M136.143 273.735C145.813 273.735 153.652 265.897 153.652 256.229C153.652 246.56 145.813 238.722 136.143 238.722C126.473 238.722 118.634 246.56 118.634 256.229C118.634 265.897 126.473 273.735 136.143 273.735Z" fill="#E3ECFF"/>
<path d="M139.66 176.557H72.6259V178.315H139.66V176.557Z" fill="#037EE6"/>
<path d="M308.062 192.721H219.465V196.31H308.062V192.721Z" fill="#03EB97"/>
<path d="M244.472 123.915H155.875V127.504H244.472V123.915Z" fill="#03EB97"/>
<path d="M255.876 261.527H167.279V265.116H255.876V261.527Z" fill="#037EE6"/>
<path d="M349.747 206.15H261.151V209.739H349.747V206.15Z" fill="#03EB97"/>
</g>
<defs>
<clipPath id="clip0_8_257">
<rect width="337" height="293" fill="white"/>
</clipPath>
</defs>
</svg>
