<svg width="428" height="399" viewBox="0 0 428 399" fill="none" xmlns="http://www.w3.org/2000/svg">
<path d="M428.5 33.8748L428.568 383.812L391.072 0.500011C397.465 0.50468 407.654 0.502979 416.977 0.501422C421.126 0.50073 425.104 0.500066 428.5 0.500005V0.512133V0.585203V0.658249V0.731273V0.804273V0.87725V0.950204V1.02313V1.09604V1.16893V1.24179V1.31462V1.38744V1.46023V1.533V1.60574V1.67846V1.75116V1.82383V1.89648V1.9691V2.04171V2.11429V2.18684V2.25937V2.33188V2.40436V2.47682V2.54926V2.62167V2.69406V2.76642V2.83876V2.91108V2.98337V3.05564V3.12788V3.2001V3.2723V3.34447V3.41662V3.48874V3.56084V3.63292V3.70497V3.77699V3.849V3.92097V3.99293V4.06486V4.13676V4.20864V4.2805V4.35233V4.42413V4.49591V4.56767V4.6394V4.71111V4.78279V4.85445V4.92609V4.9977V5.06928V5.14084V5.21237V5.28388V5.35537V5.42683V5.49826V5.56967V5.64105V5.71241V5.78375V5.85506V5.92634V5.9976V6.06883V6.14004V6.21122V6.28238V6.35351V6.42462V6.4957V6.56676V6.63779V6.7088V6.77978V6.85073V6.92166V6.99256V7.06344V7.13429V7.20512V7.27592V7.3467V7.41744V7.48817V7.55887V7.62954V7.70018V7.7708V7.8414V7.91197V7.98251V8.05303V8.12352V8.19398V8.26442V8.33483V8.40522V8.47558V8.54591V8.61622V8.6865V8.75675V8.82698V8.89719V8.96736V9.03751V9.10763V9.17773V9.2478V9.31784V9.38786V9.45785V9.52782V9.59775V9.66767V9.73755V9.80741V9.87724V9.94704V10.0168V10.0866V10.1563V10.226V10.2957V10.3653V10.4349V10.5045V10.5741V10.6436V10.7131V10.7826V10.852V10.9215V10.9909V11.0602V11.1296V11.1989V11.2682V11.3375V11.4067V11.4759V11.5451V11.6142V11.6834V11.7525V11.8215V11.8906V11.9596V12.0286V12.0976V12.1665V12.2354V12.3043V12.3731V12.4419V12.5107V12.5795V12.6482V12.717V12.7856V12.8543V12.9229V12.9915V13.0601V13.1286V13.1972V13.2656V13.3341V13.4025V13.4709V13.5393V13.6077V13.676V13.7443V13.8125V13.8808V13.949V14.0171V14.0853V14.1534V14.2215V14.2896V14.3576V14.4256V14.4936V14.5615V14.6294V14.6973V14.7652V14.833V14.9008V14.9686V15.0364V15.1041V15.1718V15.2394V15.3071V15.3747V15.4422V15.5098V15.5773V15.6448V15.7122V15.7797V15.8471V15.9144V15.9818V16.0491V16.1164V16.1836V16.2509V16.3181V16.3852V16.4524V16.5195V16.5865V16.6536V16.7206V16.7876V16.8545V16.9215V16.9884V17.0552V17.1221V17.1889V17.2557V17.3224V17.3892V17.4558V17.5225V17.5891V17.6557V17.7223V17.7889V17.8554V17.9218V17.9883V18.0547V18.1211V18.1875V18.2538V18.3201V18.3864V18.4526V18.5188V18.585V18.6512V18.7173V18.7834V18.8494V18.9155V18.9815V19.0474V19.1134V19.1793V19.2451V19.311V19.3768V19.4426V19.5083V19.5741V19.6397V19.7054V19.771V19.8366V19.9022V19.9677V20.0333V20.0987V20.1642V20.2296V20.295V20.3603V20.4256V20.4909V20.5562V20.6214V20.6866V20.7518V20.8169V20.882V20.9471V21.0121V21.0771V21.1421V21.2071V21.272V21.3369V21.4017V21.4665V21.5313V21.5961V21.6608V21.7255V21.7901V21.8548V21.9194V21.9839V22.0485V22.113V22.1775V22.2419V22.3063V22.3707V22.435V22.4993V22.5636V22.6279V22.6921V22.7563V22.8204V22.8845V22.9486V23.0127V23.0767V23.1407V23.2046V23.2686V23.3325V23.3963V23.4601V23.5239V23.5877V23.6514V23.7151V23.7788V23.8424V23.906V23.9696V24.0331V24.0966V24.1601V24.2235V24.287V24.3503V24.4137V24.477V24.5402V24.6035V24.6667V24.7299V24.793V24.8561V24.9192V24.9822V25.0452V25.1082V25.1712V25.2341V25.297V25.3598V25.4226V25.4854V25.5481V25.6108V25.6735V25.7362V25.7988V25.8613V25.9239V25.9864V26.0489V26.1113V26.1737V26.2361V26.2984V26.3608V26.423V26.4853V26.5475V26.6096V26.6718V26.7339V26.796V26.858V26.92V26.982V27.0439V27.1058V27.1677V27.2295V27.2913V27.3531V27.4148V27.4765V27.5382V27.5998V27.6614V27.723V27.7845V27.846V27.9074V27.9689V28.0302V28.0916V28.1529V28.2142V28.2755V28.3367V28.3979V28.459V28.5201V28.5812V28.6422V28.7032V28.7642V28.8251V28.8861V28.9469V29.0078V29.0686V29.1293V29.19V29.2507V29.3114V29.372V29.4326V29.4932V29.5537V29.6142V29.6746V29.735V29.7954V29.8557V29.9161V29.9763V30.0366V30.0968V30.1569V30.2171V30.2772V30.3372V30.3972V30.4572V30.5172V30.5771V30.637V30.6968V30.7566V30.8164V30.8761V30.9359V30.9955V31.0551V31.1147V31.1743V31.2338V31.2933V31.3528V31.4122V31.4716V31.5309V31.5902V31.6495V31.7087V31.7679V31.8271V31.8862V31.9453V32.0044V32.0634V32.1224V32.1813V32.2402V32.2991V32.3579V32.4167V32.4755V32.5342V32.5929V32.6515V32.7102V32.7687V32.8273V32.8858V32.9443V33.0027V33.0611V33.1194V33.1778V33.2361V33.2943V33.3525V33.4107V33.4688V33.5269V33.585V33.643V33.701V33.759V33.8169V33.8748Z" fill="#037EEE" stroke="black"/>
</svg>
