<svg width="428" height="351" viewBox="0 0 428 351" fill="none" xmlns="http://www.w3.org/2000/svg">
<path d="M0.47757 335.966V1.5H428.976V160.51C408.28 169.943 381.617 185.89 351.841 204.626C339.312 212.509 326.235 220.885 312.814 229.48C294.169 241.421 274.862 253.786 255.444 265.845C222.059 286.578 188.387 306.38 157.296 321.499C126.194 336.623 97.7216 347.039 74.7224 349.042C44.0083 351.657 19.6223 345.722 0.47757 335.966Z" fill="#037EEE" stroke="black"/>
<path opacity="0.2" d="M429.475 0H188.297C189.494 48.2727 207.811 94.549 239.98 130.568C272.148 166.587 316.074 190.003 363.914 196.637C389.071 181.029 411.636 167.897 429.475 159.741V0Z" fill="white"/>
</svg>
